<svg width="1200" height="630" viewBox="0 0 1200 630" xmlns="http://www.w3.org/2000/svg">
  <!-- Background -->
  <rect width="1200" height="630" fill="#F6F3EE"/>

  <!-- Subtle texture lines -->
  <rect x="0" y="0" width="1200" height="4" fill="#E6E0D8" opacity="0.6"/>
  <rect x="0" y="626" width="1200" height="4" fill="#E6E0D8" opacity="0.6"/>

  <!-- Card -->
  <rect x="100" y="80" width="1000" height="470" rx="24" fill="#FDFCFA" stroke="#E6E0D8" stroke-width="1.5"/>

  <!-- Sage accent bar -->
  <rect x="100" y="80" width="6" height="470" rx="3" fill="#4E7A5F"/>

  <!-- Wordmark -->
  <text x="600" y="240" font-family="Georgia, 'Times New Roman', serif" font-size="88" font-weight="600" fill="#2E2620" text-anchor="middle" letter-spacing="4">Nesema</text>

  <!-- Tagline -->
  <text x="600" y="310" font-family="Helvetica, Arial, sans-serif" font-size="28" font-weight="400" fill="#9C9087" text-anchor="middle" letter-spacing="2">Health, felt whole.</text>

  <!-- Divider -->
  <line x1="480" y1="360" x2="720" y2="360" stroke="#E6E0D8" stroke-width="1.5"/>

  <!-- Subtitle -->
  <text x="600" y="410" font-family="Helvetica, Arial, sans-serif" font-size="20" font-weight="400" fill="#5C5248" text-anchor="middle">Holistic health practitioners, on one platform.</text>

  <!-- Pill tags -->
  <rect x="224" y="450" width="196" height="36" rx="18" fill="#EBF2EE"/>
  <text x="322" y="474" font-family="Helvetica, Arial, sans-serif" font-size="15" fill="#4E7A5F" text-anchor="middle">Nutrition</text>

  <rect x="438" y="450" width="196" height="36" rx="18" fill="#EBF2EE"/>
  <text x="536" y="474" font-family="Helvetica, Arial, sans-serif" font-size="15" fill="#4E7A5F" text-anchor="middle">Physiotherapy</text>

  <rect x="652" y="450" width="196" height="36" rx="18" fill="#EBF2EE"/>
  <text x="750" y="474" font-family="Helvetica, Arial, sans-serif" font-size="15" fill="#4E7A5F" text-anchor="middle">Sleep Coaching</text>

  <rect x="866" y="450" width="140" height="36" rx="18" fill="#EBF2EE"/>
  <text x="936" y="474" font-family="Helvetica, Arial, sans-serif" font-size="15" fill="#4E7A5F" text-anchor="middle">and more</text>
</svg>
